<?xml version="1.0" encoding="utf-8"?>
<!-- Generator: Adobe Illustrator 23.0.1, SVG Export Plug-In . SVG Version: 6.00 Build 0)  -->
<svg version="1.1" id="Vrstva_1" xmlns="http://www.w3.org/2000/svg" xmlns:xlink="http://www.w3.org/1999/xlink" x="0px" y="0px"
	 viewBox="0 0 32 16" style="enable-background:new 0 0 32 16;" xml:space="preserve">
<style type="text/css">
	.st0{fill:#5B5B5B;}
	.st1{fill:#FFD217;}
</style>
<path class="st0" d="M24,16H8c-4.4,0-8-3.6-8-8l0,0c0-4.4,3.6-8,8-8h16c4.4,0,8,3.6,8,8l0,0C32,12.4,28.4,16,24,16z"/>
<g>
	<g>
		<path class="st1" d="M13.9,10.3h-0.7l0,0H9.6c-0.2,0-0.5-0.2-0.5-0.5V6.2c0-0.2,0.2-0.5,0.5-0.5h0.9h2.6h0.7
			c0.6,0,1.1-0.5,1.1-1.1s-0.5-1.1-1.1-1.1h-0.7H10H9.5C8,3.6,6.8,4.8,6.8,6.3v3.4c0,1.5,1.2,2.7,2.7,2.7h1h2.6h0.7
			c0.6,0,1.1-0.5,1.1-1.1C14.9,10.7,14.5,10.3,13.9,10.3z"/>
		<path class="st1" d="M18.1,5.7h0.7l0,0h3.6c0.2,0,0.5,0.2,0.5,0.5v3.7c0,0.2-0.2,0.5-0.5,0.5h-0.9h-2.6h-0.7
			c-0.6,0-1.1,0.5-1.1,1.1s0.5,1.1,1.1,1.1h0.7H22h0.5c1.5,0,2.7-1.2,2.7-2.7V6.3c0-1.5-1.2-2.7-2.7-2.7h-1h-2.6h-0.7
			c-0.6,0-1.1,0.5-1.1,1.1S17.5,5.7,18.1,5.7z"/>
	</g>
	<path class="st1" d="M18.7,6.9H18l0,0h-1.7h-0.7h-1.7h-0.7c-0.6,0-1.1,0.5-1.1,1.1s0.5,1.1,1.1,1.1h0.7l0,0h1.7h0.7H18h0.7
		c0.6,0,1.1-0.5,1.1-1.1S19.3,6.9,18.7,6.9z"/>
</g>
</svg>
