<?xml version="1.0" encoding="utf-8"?>
<!-- Generator: Adobe Illustrator 23.0.1, SVG Export Plug-In . SVG Version: 6.00 Build 0)  -->
<svg version="1.1" id="Vrstva_1" xmlns="http://www.w3.org/2000/svg" xmlns:xlink="http://www.w3.org/1999/xlink" x="0px" y="0px"
	 viewBox="0 0 32 16" style="enable-background:new 0 0 32 16;" xml:space="preserve">
<style type="text/css">
	.st0{fill:#DBB412;}
	.st1{fill:#606060;}
</style>
<path class="st0" d="M24,16H8c-4.4,0-8-3.6-8-8v0c0-4.4,3.6-8,8-8h16c4.4,0,8,3.6,8,8v0C32,12.4,28.4,16,24,16z"/>
<g>
	<g>
		<path class="st1" d="M13.9,10.4h-0.7v0H9.5C9.3,10.4,9,10.2,9,9.9V6.1c0-0.3,0.2-0.5,0.5-0.5h0.9h2.7h0.7c0.6,0,1.1-0.5,1.1-1.1
			s-0.5-1.1-1.1-1.1h-0.7H9.9H9.4c-1.5,0-2.8,1.2-2.8,2.8v3.5c0,1.5,1.2,2.8,2.8,2.8h1h2.7h0.7c0.6,0,1.1-0.5,1.1-1.1
			S14.5,10.4,13.9,10.4z"/>
		<path class="st1" d="M18.1,5.6h0.7v0h3.6c0.3,0,0.5,0.2,0.5,0.5v3.7c0,0.3-0.2,0.5-0.5,0.5h-0.9h-2.7h-0.7c-0.6,0-1.1,0.5-1.1,1.1
			s0.5,1.1,1.1,1.1h0.7h3.3h0.5c1.5,0,2.8-1.2,2.8-2.8V6.3c0-1.5-1.2-2.8-2.8-2.8h-1h-2.7h-0.7c-0.6,0-1.1,0.5-1.1,1.1
			S17.5,5.6,18.1,5.6z"/>
	</g>
	<path class="st1" d="M18.8,6.9h-0.7v0h-1.7h-0.7h-1.7h-0.7c-0.6,0-1.1,0.5-1.1,1.1s0.5,1.1,1.1,1.1h0.7v0h1.7h0.7h1.7h0.7
		c0.6,0,1.1-0.5,1.1-1.1S19.4,6.9,18.8,6.9z"/>
</g>
</svg>
