<?xml version="1.0" encoding="utf-8"?>
<!-- Generator: Adobe Illustrator 23.0.1, SVG Export Plug-In . SVG Version: 6.00 Build 0)  -->
<svg version="1.1" xmlns="http://www.w3.org/2000/svg" xmlns:xlink="http://www.w3.org/1999/xlink" x="0px" y="0px"
	 viewBox="0 0 1400 150" style="enable-background:new 0 0 1400 150;" xml:space="preserve">
<style type="text/css">
	.st0{fill:#FFD217;}
	.st1{fill:#DBB412;}
	.st2{fill:#5B5B5B;}
</style>
<g id="backgroung">
	<g>
		<rect class="st0" width="1400" height="150"/>
	</g>
</g>
<g id="layer2">
	<g>
		<g>
			<polygon class="st1" points="1166,-18 1139.4,28.1 1166,74.3 1219.2,74.3 1245.9,28.1 1219.2,-18 			"/>
		</g>
		<g>
			<polygon class="st1" points="1219.2,192.2 1245.9,146.1 1219.2,100 1166,100 1139.4,146.1 1166,192.2 			"/>
		</g>
		<g>
			<polygon class="st1" points="1267.9,41.5 1241.2,87.7 1267.9,133.8 1321.1,133.8 1347.8,87.7 1321.1,41.5 			"/>
		</g>
		<g>
			<polygon class="st1" points="1368.3,-18 1341.6,28.1 1368.3,74.3 1421.5,74.3 1448.2,28.1 1421.5,-18 			"/>
		</g>
		<g>
			<polygon class="st1" points="1368.3,192.2 1421.5,192.2 1448.2,146.1 1421.5,100 1368.3,100 1341.6,146.1 			"/>
		</g>
		<g>
			<polygon class="st1" points="1327.2,146.5 1327.2,146.5 1327.2,146.5 1327.2,146.5 			"/>
		</g>
	</g>
</g>
<g id="layer1">
	<g>
		<polygon class="st2" points="1146.2,99.7 1137.1,115.5 1146.2,131.3 1164.4,131.3 1173.5,115.5 1164.4,99.7 		"/>
		<polygon class="st2" points="1164.4,140.3 1146.2,140.3 1137.1,156.1 1146.2,171.9 1164.4,171.9 1173.5,156.1 		"/>
		<polygon class="st2" points="1164.4,212.2 1173.5,196.5 1164.4,180.7 1146.2,180.7 1137.1,196.5 1146.2,212.2 		"/>
		<polygon class="st2" points="1199.3,39.2 1181.1,39.2 1171.9,55 1181.1,70.8 1199.3,70.8 1208.4,55 		"/>
		<polygon class="st2" points="1199.3,30.8 1208.4,15 1199.3,-0.8 1181.1,-0.8 1171.9,15 1181.1,30.8 		"/>
		<polygon class="st2" points="1199.3,-9.7 1208.4,-25.5 1199.3,-41.3 1181.1,-41.3 1171.9,-25.5 1181.1,-9.7 		"/>
		<polygon class="st2" points="1146.2,-21.2 1137.1,-5.4 1146.2,10.4 1164.4,10.4 1173.5,-5.4 1164.4,-21.2 		"/>
		<polygon class="st2" points="1233.6,90.9 1242.7,75.1 1233.6,59.3 1215.4,59.3 1206.3,75.1 1215.4,90.9 		"/>
		<polygon class="st2" points="1233.6,131.3 1242.7,115.5 1233.6,99.7 1215.4,99.7 1206.3,115.5 1215.4,131.3 		"/>
		<polygon class="st2" points="1236.1,95.3 1236.1,95.3 1236.2,95.4 1236.2,95.4 		"/>
		<polygon class="st2" points="1250.3,79.7 1241.1,95.5 1250.3,111.3 1268.5,111.3 1277.6,95.5 1268.5,79.7 		"/>
		<polygon class="st2" points="1250.3,-0.8 1241.1,15 1250.3,30.8 1268.5,30.8 1277.6,15 1268.5,-0.8 		"/>
		<polygon class="st2" points="1268.5,-9.7 1277.6,-25.5 1268.5,-41.3 1250.3,-41.3 1241.1,-25.5 1250.3,-9.7 		"/>
		<polygon class="st2" points="1233.6,10.4 1242.7,-5.4 1233.6,-21.2 1215.4,-21.2 1206.3,-5.4 1215.4,10.4 		"/>
		<polygon class="st2" points="1236.1,14.9 1236.1,14.9 1236.2,14.9 1236.2,14.9 		"/>
		<polygon class="st2" points="1215.4,50.8 1233.6,50.8 1242.7,35 1233.6,19.2 1215.4,19.2 1206.3,35 		"/>
		<polygon class="st2" points="1284.6,59.3 1275.5,75.1 1284.6,90.9 1302.8,90.9 1311.9,75.1 1302.8,59.3 		"/>
		<polygon class="st2" points="1284.6,131.3 1302.8,131.3 1311.9,115.5 1302.8,99.7 1284.6,99.7 1275.5,115.5 		"/>
		<polygon class="st2" points="1270.5,115.6 1270.5,115.6 1270.7,115.8 1270.7,115.8 		"/>
		<polygon class="st2" points="1319.5,79.7 1310.4,95.5 1319.5,111.3 1337.7,111.3 1346.8,95.5 1337.7,79.7 		"/>
		<polygon class="st2" points="1316.9,115.6 1316.9,115.6 1316.9,115.6 		"/>
		<polygon class="st2" points="1337.7,39.2 1319.5,39.2 1310.4,55 1319.5,70.8 1337.7,70.8 1346.8,55 		"/>
		<polygon class="st2" points="1319.5,-0.8 1310.4,15 1319.5,30.8 1337.7,30.8 1346.8,15 1337.7,-0.8 		"/>
		<polygon class="st2" points="1337.7,-9.7 1346.8,-25.5 1337.7,-41.3 1319.5,-41.3 1310.4,-25.5 1319.5,-9.7 		"/>
		<polygon class="st2" points="1284.6,10.4 1302.8,10.4 1311.9,-5.4 1302.8,-21.2 1284.6,-21.2 1275.5,-5.4 		"/>
		<polygon class="st2" points="1339.8,75.3 1339.8,75.3 1339.7,75.1 1339.7,75.1 		"/>
		<polygon class="st2" points="1353.8,59.3 1344.7,75.1 1353.8,90.9 1372,90.9 1381.1,75.1 1372,59.3 		"/>
		<polygon class="st2" points="1353.8,131.3 1372,131.3 1381.1,115.5 1372,99.7 1353.8,99.7 1344.7,115.5 		"/>
		<polygon class="st2" points="1386.1,115.6 1386.2,115.6 1386.1,115.6 		"/>
		<polygon class="st2" points="1388.7,39.2 1379.6,55 1388.7,70.8 1406.9,70.8 1416,55 1406.9,39.2 		"/>
		<polygon class="st2" points="1388.7,30.8 1406.9,30.8 1416,15 1406.9,-0.8 1388.7,-0.8 1379.6,15 		"/>
		<polygon class="st2" points="1406.9,-9.7 1416,-25.5 1406.9,-41.3 1388.7,-41.3 1379.6,-25.5 1388.7,-9.7 		"/>
		<polygon class="st2" points="1339.8,-5.1 1339.8,-5.1 1339.7,-5.4 1339.7,-5.4 		"/>
		<polygon class="st2" points="1353.8,10.4 1372,10.4 1381.1,-5.4 1372,-21.2 1353.8,-21.2 1344.7,-5.4 		"/>
		<polygon class="st2" points="1339.7,-5.4 1339.7,-5.4 1339.7,-5.4 1339.7,-5.4 		"/>
		<polygon class="st2" points="1353.8,50.8 1372,50.8 1381.1,35 1372,19.2 1353.8,19.2 1344.7,35 		"/>
		<polygon class="st2" points="1181.1,160.3 1171.9,176.1 1181.1,191.9 1199.3,191.9 1208.4,176.1 1199.3,160.3 		"/>
		<polygon class="st2" points="1110.1,151.2 1128.3,151.2 1137.4,135.5 1128.3,119.7 1110.1,119.7 1100.9,135.5 		"/>
		<polygon class="st2" points="1234.1,212.2 1243.2,196.5 1234.1,180.7 1215.9,180.7 1206.8,196.5 1215.9,212.2 		"/>
		<polygon class="st2" points="1248.1,196.2 1248.1,196.2 1248.2,196.3 1248.2,196.3 		"/>
		<polygon class="st2" points="1234.1,140.2 1215.9,140.2 1206.8,156 1215.9,171.8 1234.1,171.8 1243.2,156 		"/>
		<polygon class="st2" points="1199.3,151.8 1208.4,136 1199.3,120.2 1181.1,120.2 1171.9,136 1181.1,151.8 		"/>
		<polygon class="st2" points="1268.5,191.9 1277.6,176.1 1268.5,160.3 1250.3,160.3 1241.1,176.1 1250.3,191.9 		"/>
		<polygon class="st2" points="1268.5,200.7 1250.3,200.7 1241.1,216.5 1250.3,232.2 1268.5,232.2 1277.6,216.5 		"/>
		<polygon class="st2" points="1285.1,180.7 1276,196.5 1285.1,212.2 1303.3,212.2 1312.5,196.5 1303.3,180.7 		"/>
		<polygon class="st2" points="1303.3,140.2 1285.1,140.2 1276,156 1285.1,171.8 1303.3,171.8 1312.5,156 		"/>
		<polygon class="st2" points="1282.6,135.8 1282.6,135.9 1282.6,135.9 		"/>
		<polygon class="st2" points="1351.8,135.8 1351.8,135.9 1351.8,135.9 		"/>
		<polygon class="st2" points="1354.3,171.8 1372.5,171.8 1381.7,156 1372.5,140.2 1354.3,140.2 1345.2,156 		"/>
		<polygon class="st2" points="1319.5,120.2 1310.4,136 1319.5,151.8 1337.7,151.8 1346.8,136 1337.7,120.2 		"/>
		<rect x="1316.9" y="156" class="st2" width="0" height="0"/>
		<polygon class="st2" points="1316.9,156.1 1316.9,156 1316.9,156 		"/>
		<polygon class="st2" points="1374.7,176.3 1374.5,176.1 1374.5,176.1 1374.7,176.3 		"/>
		<polygon class="st2" points="1406.9,151.8 1416,136 1406.9,120.2 1388.7,120.2 1379.6,136 1388.7,151.8 		"/>
		<rect x="1386.1" y="156" class="st2" width="0" height="0"/>
		<polygon class="st2" points="1386.1,156 1386.1,156 1386.2,156.1 		"/>
	</g>
</g>
</svg>
